<?xml version="1.0" encoding="iso-8859-1"?>
<!-- Generator: Adobe Illustrator 19.0.0, SVG Export Plug-In . SVG Version: 6.00 Build 0)  -->
<svg version="1.1" id="Capa_1" xmlns="http://www.w3.org/2000/svg" xmlns:xlink="http://www.w3.org/1999/xlink" x="0px" y="0px"
	 viewBox="0 0 512 512" style="enable-background:new 0 0 512 512;" xml:space="preserve">
<g>
	<g>
		<path d="M339.093,246.464c-3.627-7.232-11.008-11.797-19.093-11.797h-42.667V21.333C277.333,9.557,267.797,0,256,0
			s-21.333,9.557-21.333,21.333v213.333H192c-8.085,0-15.467,4.565-19.093,11.797c-3.584,7.232-2.816,15.872,2.027,22.336l64,85.333
			c0.277,0.363,0.704,0.491,1.003,0.832c1.408,1.664,3.072,2.944,4.928,4.117c0.768,0.469,1.365,1.088,2.197,1.472
			c2.731,1.28,5.717,2.112,8.939,2.112s6.208-0.832,8.96-2.112c0.811-0.384,1.429-1.003,2.176-1.472
			c1.856-1.173,3.52-2.453,4.928-4.117c0.277-0.341,0.725-0.469,1.003-0.832l64-85.333
			C341.931,262.336,342.699,253.696,339.093,246.464z"/>
	</g>
</g>
<g>
	<g>
		<path d="M490.667,320c-11.797,0-21.333,9.557-21.333,21.333v64c0,35.285-28.715,64-64,64H106.667c-35.285,0-64-28.715-64-64v-64
			c0-11.776-9.536-21.333-21.333-21.333C9.536,320,0,329.557,0,341.333v64C0,464.149,47.851,512,106.667,512h298.667
			C464.149,512,512,464.149,512,405.333v-64C512,329.557,502.464,320,490.667,320z"/>
	</g>
</g>
<g>
</g>
<g>
</g>
<g>
</g>
<g>
</g>
<g>
</g>
<g>
</g>
<g>
</g>
<g>
</g>
<g>
</g>
<g>
</g>
<g>
</g>
<g>
</g>
<g>
</g>
<g>
</g>
<g>
</g>
</svg>
